<?xml version="1.0" encoding="utf-8"?>
<!-- Generated by IcoMoon.io -->
<!DOCTYPE svg PUBLIC "-//W3C//DTD SVG 1.1//EN" "http://www.w3.org/Graphics/SVG/1.1/DTD/svg11.dtd">

<svg version="1.1" xmlns="http://www.w3.org/2000/svg" xmlns:xlink="http://www.w3.org/1999/xlink" width="756" height="80" viewBox="0 0 756 80">
<defs>
<g id="icon-home">
	<path class="path1" d="M32 19l-6-6v-9h-4v5l-6-6-16 16v1h4v10h10v-6h4v6h10v-10h4z"></path>
</g>
<g id="icon-pencil">
	<path class="path1" d="M12 20l4-2 14-14-2-2-14 14-2 4zM9.041 27.097c-0.989-2.085-2.052-3.149-4.137-4.137l3.097-8.525 4-2.435 12-12h-6l-12 12-6 20 20-6 12-12v-6l-12 12-2.435 4z"></path>
</g>
<g id="icon-images">
	<path class="path1" d="M4 8v20h28v-20h-28zM30 24.667l-4-6.667-4.533 3.778-3.467-5.778-12 10v-16h24v14.667zM8 15c0-1.657 1.343-3 3-3s3 1.343 3 3c0 1.657-1.343 3-3 3s-3-1.343-3-3zM28 4h-28v20h2v-18h26z"></path>
</g>
<g id="icon-camera">
	<path class="path1" d="M9.5 19c0 3.59 2.91 6.5 6.5 6.5s6.5-2.91 6.5-6.5-2.91-6.5-6.5-6.5-6.5 2.91-6.5 6.5zM30 8h-7c-0.5-2-1-4-3-4h-8c-2 0-2.5 2-3 4h-7c-1.1 0-2 0.9-2 2v18c0 1.1 0.9 2 2 2h28c1.1 0 2-0.9 2-2v-18c0-1.1-0.9-2-2-2zM16 27.875c-4.902 0-8.875-3.973-8.875-8.875s3.973-8.875 8.875-8.875c4.902 0 8.875 3.973 8.875 8.875s-3.973 8.875-8.875 8.875zM30 14h-4v-2h4v2z"></path>
</g>
<g id="icon-stack">
	<path class="path1" d="M32 10l-16-8-16 8 16 8 16-8zM16 4.655l10.689 5.345-10.689 5.345-10.689-5.345 10.689-5.345zM28.795 14.398l3.205 1.602-16 8-16-8 3.205-1.602 12.795 6.398zM28.795 20.398l3.205 1.602-16 8-16-8 3.205-1.602 12.795 6.398z"></path>
</g>
<g id="icon-drawer">
	<path class="path1" d="M22 6h-12l-10 12v8c0 1.105 0.895 2 2 2h28c1.105 0 2-0.895 2-2v-8l-10-12zM24 18l-4 4h-8l-4-4h-5.397l8.333-10h10.127l8.333 10h-5.397z"></path>
</g>
<g id="icon-drawer2">
	<path class="path1" d="M22 6h-12l-10 12v8c0 1.105 0.895 2 2 2h28c1.105 0 2-0.895 2-2v-8l-10-12zM20 22h-8l-2-2h12l-2 2zM2.603 18l8.333-10h10.127l8.333 10h-26.793zM8.905 12h14.19l-1.667-2h-10.856zM5.572 16h20.856l-1.667-2h-17.523z"></path>
</g>
<g id="icon-undo">
	<path class="path1" d="M23.808 32c3.554-6.439 4.153-16.26-9.808-15.932v7.932l-12-12 12-12v7.762c16.718-0.436 18.58 14.757 9.808 24.238z"></path>
</g>
<g id="icon-bubbles">
	<path class="path1" d="M15 4c-1.583 0-3.112 0.248-4.543 0.738-1.341 0.459-2.535 1.107-3.547 1.926-1.876 1.518-2.91 3.463-2.91 5.474 0 1.125 0.315 2.217 0.935 3.247 0.646 1.073 1.622 2.056 2.821 2.842 0.951 0.624 1.592 1.623 1.761 2.748 0.028 0.187 0.051 0.375 0.068 0.564 0.085-0.079 0.169-0.16 0.254-0.244 0.754-0.751 1.771-1.166 2.823-1.166 0.167 0 0.335 0.011 0.503 0.032 0.605 0.077 1.223 0.116 1.836 0.116 1.583 0 3.112-0.248 4.543-0.738 1.341-0.459 2.535-1.107 3.547-1.926 1.876-1.518 2.91-3.463 2.91-5.474s-1.033-3.956-2.91-5.474c-1.012-0.819-2.206-1.467-3.547-1.926-1.431-0.49-2.96-0.738-4.543-0.738zM15 0v0c8.284 0 15 5.435 15 12.139s-6.716 12.139-15 12.139c-0.796 0-1.576-0.051-2.339-0.147-3.222 3.209-6.943 3.785-10.661 3.869v-0.785c2.008-0.98 3.625-2.765 3.625-4.804 0-0.285-0.022-0.564-0.063-0.837-3.392-2.225-5.562-5.625-5.562-9.434 0-6.704 6.716-12.139 15-12.139zM31.125 27.209c0 1.748 1.135 3.278 2.875 4.118v0.673c-3.223-0.072-6.181-0.566-8.973-3.316-0.661 0.083-1.337 0.126-2.027 0.126-2.983 0-5.732-0.805-7.925-2.157 4.521-0.016 8.789-1.464 12.026-4.084 1.631-1.32 2.919-2.87 3.825-4.605 0.961-1.84 1.449-3.799 1.449-5.825 0-0.326-0.014-0.651-0.039-0.974 2.268 1.873 3.664 4.426 3.664 7.24 0 3.265-1.88 6.179-4.82 8.086-0.036 0.234-0.055 0.474-0.055 0.718z"></path>
</g>
<g id="icon-spinner">
	<path class="path1" d="M16 0c-8.837 0-16 7.163-16 16s7.163 16 16 16 16-7.163 16-16-7.163-16-16-16zM16 8c4.418 0 8 3.582 8 8s-3.582 8-8 8-8-3.582-8-8 3.582-8 8-8zM25.546 25.546c-2.55 2.55-5.94 3.954-9.546 3.954s-6.996-1.404-9.546-3.954c-2.55-2.55-3.954-5.94-3.954-9.546s1.404-6.996 3.954-9.546l2.121 2.121c0 0 0 0 0 0-4.094 4.094-4.094 10.755 0 14.849 1.983 1.983 4.62 3.075 7.425 3.075s5.441-1.092 7.425-3.075c4.094-4.094 4.094-10.755 0-14.849l2.121-2.121c2.55 2.55 3.954 5.94 3.954 9.546s-1.404 6.996-3.954 9.546z"></path>
</g>
<g id="icon-settings">
	<path class="path1" d="M14 4v-0.5c0-0.825-0.675-1.5-1.5-1.5h-5c-0.825 0-1.5 0.675-1.5 1.5v0.5h-6v4h6v0.5c0 0.825 0.675 1.5 1.5 1.5h5c0.825 0 1.5-0.675 1.5-1.5v-0.5h18v-4h-18zM8 8v-4h4v4h-4zM26 13.5c0-0.825-0.675-1.5-1.5-1.5h-5c-0.825 0-1.5 0.675-1.5 1.5v0.5h-18v4h18v0.5c0 0.825 0.675 1.5 1.5 1.5h5c0.825 0 1.5-0.675 1.5-1.5v-0.5h6v-4h-6v-0.5zM20 18v-4h4v4h-4zM14 23.5c0-0.825-0.675-1.5-1.5-1.5h-5c-0.825 0-1.5 0.675-1.5 1.5v0.5h-6v4h6v0.5c0 0.825 0.675 1.5 1.5 1.5h5c0.825 0 1.5-0.675 1.5-1.5v-0.5h18v-4h-18v-0.5zM8 28v-4h4v4h-4z"></path>
</g>
<g id="icon-menu">
	<path class="path1" d="M2 6h28v6h-28zM2 14h28v6h-28zM2 22h28v6h-28z"></path>
</g>
<g id="icon-star">
	<path class="path1" d="M32 12.408l-11.056-1.607-4.944-10.018-4.944 10.018-11.056 1.607 8 7.798-1.889 11.011 9.889-5.199 9.889 5.199-1.889-11.011 8-7.798zM16 23.547l-6.983 3.671 1.334-7.776-5.65-5.507 7.808-1.134 3.492-7.075 3.492 7.075 7.807 1.134-5.65 5.507 1.334 7.776-6.983-3.671z"></path>
</g>
<g id="icon-star2">
	<path class="path1" d="M32 12.408l-11.056-1.607-4.944-10.018-4.944 10.018-11.056 1.607 8 7.798-1.889 11.011 9.889-5.199 9.889 5.199-1.889-11.011 8-7.798z"></path>
</g>
<g id="icon-loop">
	<path class="path1" d="M4 10h20v6l8-8-8-8v6h-24v12h4zM28 22h-20v-6l-8 8 8 8v-6h24v-12h-4z"></path>
</g>
<g id="icon-loop2">
	<path class="path1" d="M10 20v-6h6l-8-8-8 8h6v10h12l-4-4zM26 18v-10h-12l4 4h4v6h-6l8 8 8-8z"></path>
</g>
<g id="icon-checkbox-unchecked">
	<path class="path1" d="M0 0v32h32v-32h-32zM30 30h-28v-28h28v28z"></path>
</g>
</defs>

<g fill="#ecf0f1">
	<use xlink:href="#icon-home" transform="translate(0 0)"></use>
	<use xlink:href="#icon-pencil" transform="translate(48 0)"></use>
	<use xlink:href="#icon-images" transform="translate(96 0)"></use>
	<use xlink:href="#icon-camera" transform="translate(144 0)"></use>
	<use xlink:href="#icon-stack" transform="translate(192 0)"></use>
	<use xlink:href="#icon-drawer" transform="translate(240 0)"></use>
	<use xlink:href="#icon-drawer2" transform="translate(288 0)"></use>
	<use xlink:href="#icon-undo" transform="translate(336 0)"></use>
	<use xlink:href="#icon-bubbles" transform="translate(384 0)"></use>
	<use xlink:href="#icon-spinner" transform="translate(436 0)"></use>
	<use xlink:href="#icon-settings" transform="translate(484 0)"></use>
	<use xlink:href="#icon-menu" transform="translate(532 0)"></use>
	<use xlink:href="#icon-star" transform="translate(580 0)"></use>
	<use xlink:href="#icon-star2" transform="translate(628 0)"></use>
	<use xlink:href="#icon-loop" transform="translate(676 0)"></use>
	<use xlink:href="#icon-loop2" transform="translate(724 0)"></use>
	<use xlink:href="#icon-checkbox-unchecked" transform="translate(0 48)"></use>
</g>

</svg>
